<svg xmlns="http://www.w3.org/2000/svg" width="2778" height="818" fill="none"><path fill="#253B80" d="M1087 225H938c-10 0-19 7-21 17l-60 389c-1 8 5 15 12 15h72c10 0 18-8 20-18l16-105c2-10 11-18 21-18h47c99 0 155-48 170-144 7-42 1-75-19-98-21-25-59-38-109-38zm18 142c-9 54-50 54-89 54h-23l16-101c1-7 6-11 12-11h11c27 0 52 0 65 15 8 10 11 24 8 43zm429-2h-72c-6 0-11 4-12 11l-3 20-5-7c-16-23-50-31-85-31-79 0-146 61-159 146-7 43 3 83 26 112 22 26 53 37 90 37 64 0 99-42 99-42l-3 20c-1 8 5 15 13 15h64c10 0 19-8 21-18l38-248c1-8-4-15-12-15zm-100 141c-7 42-39 70-81 70-20 0-37-7-48-20a62 62 0 01-11-51c7-41 40-70 80-70 21 0 37 7 48 20s15 31 12 51zm481-141h-72c-7 0-13 3-17 9l-99 148-42-142c-3-9-11-15-20-15h-71c-8 0-14 8-12 17l80 236-75 106c-6 9 0 20 10 20h72c7 0 13-3 17-9l239-350c6-9 0-20-10-20z"/><path fill="#179BD7" d="M2153 225h-149c-10 0-19 7-21 17l-60 389c-1 8 4 15 12 15h77c7 0 13-5 14-13l17-110c2-10 11-18 21-18h47c98 0 155-48 170-144 7-42 0-75-19-98-21-25-59-38-109-38zm17 142c-8 54-49 54-88 54h-23l16-101c1-7 6-11 12-11h11c27 0 52 0 65 15 8 10 10 24 7 43zm430-2h-72c-6 0-11 4-12 11l-3 20-5-7c-16-23-50-31-85-31-79 0-146 61-159 146-7 43 2 83 26 112 22 26 53 37 90 37 64 0 99-42 99-42l-3 20c-1 8 5 15 13 15h64c10 0 19-8 21-18l38-248c1-8-4-15-12-15zm-100 141c-7 42-39 70-81 70-20 0-37-7-48-20a63 63 0 01-11-51c7-41 40-70 80-70 21 0 37 7 48 20s15 31 12 51zm184-271l-61 396c-1 8 5 15 12 15h62c10 0 19-8 20-18l61-389c1-7-5-14-12-14h-69c-7 0-12 4-13 10z"/><path fill="#253B80" d="M197 790l14-90-31-1H29L134 35c0-2 1-4 3-5 1-2 3-2 5-2h255c84 0 142 17 173 52 14 16 23 33 27 52 5 20 5 43 1 72l-1 2v18l15 8c12 6 21 14 28 22 13 14 21 32 24 53s2 47-3 76c-7 33-17 62-32 86a177 177 0 01-116 84c-24 7-52 10-83 10h-20a60 60 0 00-59 50l-1 8-25 159-2 6-1 3-3 1H197z"/><path fill="#179BD7" d="M625 208l-3 15c-33 172-148 231-294 231h-75c-18 0-33 13-36 31l-38 242-11 69c-2 12 7 22 19 22h132c16 0 29-11 32-27l1-7 25-158 2-8c2-16 15-27 31-27h20c128 0 228-52 258-203 12-63 6-115-27-152-10-11-22-21-36-28z"/><path fill="#222D65" d="M590 194a265 265 0 00-33-7c-20-4-42-5-65-5H292a32 32 0 00-31 27l-43 268-1 8c3-18 18-31 36-31h75c146 0 261-59 294-231l3-15a179 179 0 00-35-14z"/><path fill="#253B80" d="M261 209a32 32 0 0131-27h200a415 415 0 01106 14c9 3 19 7 27 12 10-64 0-107-34-146C553 18 484 0 397 0H142c-18 0-33 13-36 31L0 702c-2 13 8 25 22 25h157l39-250 43-268z"/></svg>